<mxfile host="app.diagrams.net" modified="2024-07-21T01:28:27.671Z" agent="Mozilla/5.0 (Windows NT 10.0; Win64; x64) AppleWebKit/537.36 (KHTML, like Gecko) Chrome/126.0.0.0 Safari/537.36" etag="31_v1H_7S7cst0a52oXr" version="24.6.4" type="device">
  <diagram id="C5RBs43oDa-KdzZeNtuy" name="Page-1">
    <mxGraphModel dx="1235" dy="614" grid="1" gridSize="10" guides="1" tooltips="1" connect="1" arrows="1" fold="1" page="1" pageScale="1" pageWidth="827" pageHeight="1169" math="0" shadow="0">
      <root>
        <mxCell id="WIyWlLk6GJQsqaUBKTNV-0" />
        <mxCell id="WIyWlLk6GJQsqaUBKTNV-1" parent="WIyWlLk6GJQsqaUBKTNV-0" />
        <mxCell id="CPElphuoFTL65QGbn7bw-3" value="" style="edgeStyle=orthogonalEdgeStyle;rounded=0;orthogonalLoop=1;jettySize=auto;html=1;" edge="1" parent="WIyWlLk6GJQsqaUBKTNV-1" target="CPElphuoFTL65QGbn7bw-2">
          <mxGeometry relative="1" as="geometry">
            <mxPoint x="400" y="70" as="sourcePoint" />
          </mxGeometry>
        </mxCell>
        <mxCell id="CPElphuoFTL65QGbn7bw-1" value="Inicio" style="ellipse;whiteSpace=wrap;html=1;fillColor=#f8cecc;strokeColor=#b85450;" vertex="1" parent="WIyWlLk6GJQsqaUBKTNV-1">
          <mxGeometry x="350" y="10" width="100" height="60" as="geometry" />
        </mxCell>
        <mxCell id="CPElphuoFTL65QGbn7bw-5" value="" style="edgeStyle=orthogonalEdgeStyle;rounded=0;orthogonalLoop=1;jettySize=auto;html=1;" edge="1" parent="WIyWlLk6GJQsqaUBKTNV-1" source="CPElphuoFTL65QGbn7bw-2" target="CPElphuoFTL65QGbn7bw-4">
          <mxGeometry relative="1" as="geometry" />
        </mxCell>
        <mxCell id="CPElphuoFTL65QGbn7bw-2" value="Leer puntos de la superficie" style="whiteSpace=wrap;html=1;" vertex="1" parent="WIyWlLk6GJQsqaUBKTNV-1">
          <mxGeometry x="340" y="90" width="120" height="60" as="geometry" />
        </mxCell>
        <mxCell id="CPElphuoFTL65QGbn7bw-7" value="" style="edgeStyle=orthogonalEdgeStyle;rounded=0;orthogonalLoop=1;jettySize=auto;html=1;" edge="1" parent="WIyWlLk6GJQsqaUBKTNV-1" source="CPElphuoFTL65QGbn7bw-4" target="CPElphuoFTL65QGbn7bw-6">
          <mxGeometry relative="1" as="geometry" />
        </mxCell>
        <mxCell id="CPElphuoFTL65QGbn7bw-4" value="&#xa;Leer parámetros del módulo&quot; (posición, velocidad, combustible, rotación, potencia)&#xa;&#xa;" style="whiteSpace=wrap;html=1;" vertex="1" parent="WIyWlLk6GJQsqaUBKTNV-1">
          <mxGeometry x="325" y="170" width="150" height="80" as="geometry" />
        </mxCell>
        <mxCell id="CPElphuoFTL65QGbn7bw-9" value="" style="edgeStyle=orthogonalEdgeStyle;rounded=0;orthogonalLoop=1;jettySize=auto;html=1;" edge="1" parent="WIyWlLk6GJQsqaUBKTNV-1" source="CPElphuoFTL65QGbn7bw-6" target="CPElphuoFTL65QGbn7bw-8">
          <mxGeometry relative="1" as="geometry" />
        </mxCell>
        <mxCell id="CPElphuoFTL65QGbn7bw-11" value="" style="edgeStyle=orthogonalEdgeStyle;rounded=0;orthogonalLoop=1;jettySize=auto;html=1;" edge="1" parent="WIyWlLk6GJQsqaUBKTNV-1" source="CPElphuoFTL65QGbn7bw-6" target="CPElphuoFTL65QGbn7bw-10">
          <mxGeometry relative="1" as="geometry" />
        </mxCell>
        <mxCell id="CPElphuoFTL65QGbn7bw-13" value="" style="edgeStyle=orthogonalEdgeStyle;rounded=0;orthogonalLoop=1;jettySize=auto;html=1;" edge="1" parent="WIyWlLk6GJQsqaUBKTNV-1" source="CPElphuoFTL65QGbn7bw-6" target="CPElphuoFTL65QGbn7bw-12">
          <mxGeometry relative="1" as="geometry" />
        </mxCell>
        <mxCell id="CPElphuoFTL65QGbn7bw-6" value="&lt;br&gt;&lt;li&gt;Leer parámetros del módulo&quot; &quot;vSpeed &amp;lt;= -40?&lt;/li&gt;&lt;div&gt;&lt;br/&gt;&lt;/div&gt;" style="rhombus;whiteSpace=wrap;html=1;" vertex="1" parent="WIyWlLk6GJQsqaUBKTNV-1">
          <mxGeometry x="320" y="270" width="160" height="150" as="geometry" />
        </mxCell>
        <mxCell id="CPElphuoFTL65QGbn7bw-16" value="" style="edgeStyle=orthogonalEdgeStyle;rounded=0;orthogonalLoop=1;jettySize=auto;html=1;" edge="1" parent="WIyWlLk6GJQsqaUBKTNV-1" source="CPElphuoFTL65QGbn7bw-8">
          <mxGeometry relative="1" as="geometry">
            <mxPoint x="230" y="460" as="targetPoint" />
            <Array as="points">
              <mxPoint x="140" y="460" />
            </Array>
          </mxGeometry>
        </mxCell>
        <mxCell id="CPElphuoFTL65QGbn7bw-8" value="power = 0" style="whiteSpace=wrap;html=1;" vertex="1" parent="WIyWlLk6GJQsqaUBKTNV-1">
          <mxGeometry x="80" y="315" width="120" height="60" as="geometry" />
        </mxCell>
        <mxCell id="CPElphuoFTL65QGbn7bw-10" value="&#xa;power = 4&#xa;&#xa;" style="whiteSpace=wrap;html=1;" vertex="1" parent="WIyWlLk6GJQsqaUBKTNV-1">
          <mxGeometry x="580" y="315" width="120" height="60" as="geometry" />
        </mxCell>
        <mxCell id="CPElphuoFTL65QGbn7bw-12" value="&#xa;Imprimir rotación = 0 y power&#xa;&#xa;" style="whiteSpace=wrap;html=1;fillColor=#dae8fc;strokeColor=#6c8ebf;" vertex="1" parent="WIyWlLk6GJQsqaUBKTNV-1">
          <mxGeometry x="340" y="430" width="120" height="60" as="geometry" />
        </mxCell>
        <mxCell id="CPElphuoFTL65QGbn7bw-17" value="" style="endArrow=classic;html=1;rounded=0;entryX=0;entryY=0.5;entryDx=0;entryDy=0;" edge="1" parent="WIyWlLk6GJQsqaUBKTNV-1" target="CPElphuoFTL65QGbn7bw-12">
          <mxGeometry width="50" height="50" relative="1" as="geometry">
            <mxPoint x="230" y="460" as="sourcePoint" />
            <mxPoint x="280" y="410" as="targetPoint" />
          </mxGeometry>
        </mxCell>
        <mxCell id="CPElphuoFTL65QGbn7bw-18" value="" style="edgeStyle=orthogonalEdgeStyle;rounded=0;orthogonalLoop=1;jettySize=auto;html=1;" edge="1" parent="WIyWlLk6GJQsqaUBKTNV-1">
          <mxGeometry relative="1" as="geometry">
            <mxPoint x="639.41" y="375" as="sourcePoint" />
            <mxPoint x="639.41" y="460" as="targetPoint" />
          </mxGeometry>
        </mxCell>
        <mxCell id="CPElphuoFTL65QGbn7bw-19" value="" style="endArrow=classic;html=1;rounded=0;" edge="1" parent="WIyWlLk6GJQsqaUBKTNV-1">
          <mxGeometry width="50" height="50" relative="1" as="geometry">
            <mxPoint x="640" y="460" as="sourcePoint" />
            <mxPoint x="460" y="460" as="targetPoint" />
          </mxGeometry>
        </mxCell>
        <mxCell id="CPElphuoFTL65QGbn7bw-21" value="" style="endArrow=classic;html=1;rounded=0;" edge="1" parent="WIyWlLk6GJQsqaUBKTNV-1">
          <mxGeometry width="50" height="50" relative="1" as="geometry">
            <mxPoint x="399.5" y="490" as="sourcePoint" />
            <mxPoint x="399.5" y="540" as="targetPoint" />
          </mxGeometry>
        </mxCell>
        <mxCell id="CPElphuoFTL65QGbn7bw-22" value="" style="endArrow=classic;html=1;rounded=0;" edge="1" parent="WIyWlLk6GJQsqaUBKTNV-1">
          <mxGeometry width="50" height="50" relative="1" as="geometry">
            <mxPoint x="400" y="540" as="sourcePoint" />
            <mxPoint x="740" y="540" as="targetPoint" />
          </mxGeometry>
        </mxCell>
        <mxCell id="CPElphuoFTL65QGbn7bw-23" value="" style="endArrow=classic;html=1;rounded=0;" edge="1" parent="WIyWlLk6GJQsqaUBKTNV-1">
          <mxGeometry width="50" height="50" relative="1" as="geometry">
            <mxPoint x="740" y="540" as="sourcePoint" />
            <mxPoint x="740" y="210" as="targetPoint" />
          </mxGeometry>
        </mxCell>
        <mxCell id="CPElphuoFTL65QGbn7bw-24" value="" style="endArrow=classic;html=1;rounded=0;" edge="1" parent="WIyWlLk6GJQsqaUBKTNV-1" target="CPElphuoFTL65QGbn7bw-4">
          <mxGeometry width="50" height="50" relative="1" as="geometry">
            <mxPoint x="740" y="210" as="sourcePoint" />
            <mxPoint x="730" y="160" as="targetPoint" />
          </mxGeometry>
        </mxCell>
        <mxCell id="CPElphuoFTL65QGbn7bw-26" value="No" style="text;html=1;align=center;verticalAlign=middle;whiteSpace=wrap;rounded=0;fillColor=#e1d5e7;strokeColor=#9673a6;" vertex="1" parent="WIyWlLk6GJQsqaUBKTNV-1">
          <mxGeometry x="230" y="320" width="60" height="30" as="geometry" />
        </mxCell>
        <mxCell id="CPElphuoFTL65QGbn7bw-27" value="Si" style="text;html=1;align=center;verticalAlign=middle;whiteSpace=wrap;rounded=0;fillColor=#d5e8d4;strokeColor=#82b366;" vertex="1" parent="WIyWlLk6GJQsqaUBKTNV-1">
          <mxGeometry x="500" y="320" width="60" height="30" as="geometry" />
        </mxCell>
      </root>
    </mxGraphModel>
  </diagram>
</mxfile>
